<svg width="24" height="24" viewBox="0 0 24 24" fill="none" xmlns="http://www.w3.org/2000/svg">
<path d="M11.5557 7.13835C11.5556 7.1383 11.5556 7.13826 11.5556 7.13822L11.5554 7.13793L11.5506 7.12883C11.5457 7.11992 11.5378 7.10544 11.5267 7.08597C11.5045 7.04699 11.4699 6.98814 11.4228 6.91394C11.3284 6.76528 11.1851 6.55652 10.9928 6.32322C10.3308 5.51983 9.15472 4.5 7.45712 4.5C5.26259 4.5 3.52296 6.28128 3.50045 8.40563L11.5557 7.13835ZM11.5557 7.13835L11.5557 7.13847C11.5557 7.1385 11.5558 7.13853 11.5558 7.13856C11.5558 7.1386 11.5558 7.13864 11.5558 7.13868C11.5559 7.1387 11.5559 7.13873 11.5559 7.13876C11.5559 7.13884 11.556 7.13892 11.556 7.13899L11.5561 7.1392C11.642 7.30497 11.8132 7.40908 12 7.40908C12.1871 7.40908 12.3586 7.30462 12.4443 7.13835L12.4444 7.13822L12.4446 7.13792L12.4494 7.12882C12.4543 7.11992 12.4622 7.10544 12.4733 7.08597C12.4955 7.04699 12.5301 6.98814 12.5772 6.91394C12.6716 6.76528 12.8149 6.55652 13.0072 6.32322C13.6692 5.51983 14.8453 4.5 16.5429 4.5C18.7374 4.5 20.477 6.28126 20.4996 8.40558C20.5235 10.7375 19.5736 12.7512 18.0401 14.5642C16.5004 16.3843 14.3916 17.9788 12.1469 19.4564L12.1465 19.4567C12.1046 19.4843 12.0536 19.5 12 19.5C11.9464 19.5 11.8954 19.4843 11.8535 19.4567L11.853 19.4564C9.60813 17.9788 7.4992 16.3843 5.95957 14.5642C4.42608 12.7512 3.47628 10.7376 3.50045 8.40572L11.5557 7.13835ZM11.5758 4.72113L11.9101 4.37399C11.9406 4.40335 11.9705 4.4327 12 4.462C12.0295 4.4327 12.0594 4.40335 12.0899 4.37399L12.4242 4.72113L12.09 4.37399C13.0172 3.48121 14.5061 2.5 16.5429 2.5C19.8514 2.5 22.4656 5.18198 22.4994 8.38487L22.4995 8.38502C22.5297 11.3283 21.3137 13.7909 19.5671 15.8558C17.8388 17.899 15.5366 19.6195 13.2468 21.1268L11.5758 4.72113ZM11.5758 4.72113L11.9101 4.37399C10.9828 3.48121 9.49392 2.5 7.45712 2.5C4.1486 2.5 1.53443 5.18165 1.50056 8.38458L1.50056 8.38468M11.5758 4.72113L1.50056 8.38468M1.50056 8.38468C1.47002 11.328 2.68596 13.7909 4.43258 15.8558C6.16075 17.8989 8.46336 19.6196 10.7533 21.1269C11.1251 21.3718 11.5593 21.5 12 21.5M1.50056 8.38468L12 21.5M12 21.5C12.4406 21.5 12.8748 21.3718 13.2466 21.127L12 21.5Z" fill="#2B7EFE" stroke="#2B7EFE" stroke-linecap="round" stroke-linejoin="round"/>
<path d="M3 7L5 5L6.5 4L9.5 4.5L11.5 6H12.5L14.5 4.5L17 4L20 5.5L21 8.5L20 12.5L17 16.5L12 20L9.5 19L5.5 15.5L3 10.5V7Z" fill="#2B7EFE" stroke="#2B7EFE"/>
</svg>
