<svg width="24" height="24" viewBox="0 0 24 24" fill="none" xmlns="http://www.w3.org/2000/svg">
<path fill-rule="evenodd" clip-rule="evenodd" d="M11.3787 6.00526C11.7936 6.50883 12 6.90908 12 6.90908C12 6.90908 12.2064 6.50883 12.6213 6.00526C13.325 5.15122 14.6286 4 16.5429 4C19.0159 4 20.9742 6.00636 20.9995 8.40044C21.0506 13.37 16.9338 16.904 12.4219 19.874C12.2975 19.9561 12.1505 20 12 20C11.8495 20 11.7026 19.9561 11.5782 19.874C7.06573 16.904 2.94892 13.37 3.00048 8.40044C3.02579 6.00636 4.98412 4 7.45712 4C9.37137 4 10.675 5.15122 11.3787 6.00526ZM11.0284 20.7093C11.3177 20.8999 11.6561 21 12 21C12.3439 21 12.6824 20.8999 12.9717 20.7093C15.2502 19.2095 17.5042 17.5204 19.1853 15.5329C20.8787 13.5309 22.0282 11.1805 21.9995 8.39016C21.9685 5.45668 19.5727 3 16.5429 3C14.678 3 13.3069 3.89638 12.4367 4.73417C12.2761 4.88885 12.1306 5.04325 12 5.19228C11.8694 5.04325 11.7239 4.88885 11.5633 4.73417C10.6931 3.89638 9.32196 3 7.45712 3C4.42727 3 2.03155 5.45639 2.00053 8.38987C1.97158 11.1803 3.12092 13.5309 4.81433 15.5329C6.49539 17.5203 8.74972 19.2096 11.0284 20.7093Z" fill="#9F9F9F"/>
</svg>
