<svg width="32" height="33" viewBox="0 0 32 33" fill="none" xmlns="http://www.w3.org/2000/svg">
<circle cx="16" cy="16" r="16" fill="#00427D"/>
<g filter="url(#filter0_d_1584_1815)">
<path d="M16 18L15.6719 18.3773C15.86 18.5409 16.14 18.5409 16.3281 18.3773L16 18ZM11.6366 18.3913C11.9022 18.3158 12.0564 18.0393 11.981 17.7737C11.9055 17.5081 11.629 17.3539 11.3634 17.4293L11.6366 18.3913ZM20.6366 17.4293C20.371 17.3539 20.0945 17.5081 20.019 17.7737C19.9436 18.0393 20.0978 18.3158 20.3634 18.3913L20.6366 17.4293ZM19.5 11.913C19.5 12.4462 19.2923 13.0669 18.9353 13.7267C18.5818 14.3798 18.1042 15.0308 17.6165 15.614C17.1301 16.1956 16.6422 16.6994 16.2754 17.0583C16.0922 17.2375 15.94 17.3798 15.8341 17.4768C15.7812 17.5253 15.7399 17.5624 15.7122 17.587C15.6984 17.5994 15.6879 17.6086 15.6811 17.6146C15.6777 17.6176 15.6753 17.6198 15.6737 17.6211C15.6729 17.6218 15.6724 17.6223 15.6721 17.6225C15.6719 17.6227 15.6719 17.6228 15.6718 17.6228C15.6718 17.6228 15.6718 17.6228 15.6718 17.6228C15.6719 17.6227 15.6719 17.6227 16 18C16.3281 18.3773 16.3282 18.3772 16.3283 18.3771C16.3283 18.3771 16.3284 18.377 16.3285 18.3769C16.3288 18.3767 16.329 18.3765 16.3294 18.3762C16.33 18.3756 16.3309 18.3748 16.3321 18.3738C16.3344 18.3718 16.3376 18.369 16.3418 18.3653C16.3501 18.3579 16.3622 18.3473 16.3776 18.3336C16.4085 18.306 16.4532 18.2658 16.5096 18.2141C16.6225 18.1107 16.7828 17.9609 16.9746 17.7732C17.3578 17.3984 17.8699 16.8697 18.3835 16.2556C18.8958 15.6431 19.4182 14.9354 19.8147 14.2026C20.2077 13.4766 20.5 12.6842 20.5 11.913H19.5ZM16 18C16.3281 17.6227 16.3281 17.6227 16.3282 17.6228C16.3282 17.6228 16.3282 17.6228 16.3282 17.6228C16.3282 17.6228 16.3281 17.6227 16.3279 17.6225C16.3276 17.6223 16.3271 17.6218 16.3263 17.6211C16.3248 17.6198 16.3223 17.6176 16.3189 17.6146C16.3121 17.6086 16.3016 17.5994 16.2878 17.587C16.2601 17.5624 16.2188 17.5253 16.1659 17.4768C16.06 17.3798 15.9078 17.2375 15.7246 17.0583C15.3578 16.6994 14.8699 16.1956 14.3835 15.614C13.8958 15.0308 13.4182 14.3798 13.0647 13.7267C12.7077 13.0669 12.5 12.4462 12.5 11.913H11.5C11.5 12.6842 11.7923 13.4766 12.1853 14.2026C12.5818 14.9354 13.1042 15.6431 13.6165 16.2556C14.1301 16.8697 14.6422 17.3984 15.0254 17.7732C15.2172 17.9609 15.3775 18.1107 15.4904 18.2141C15.5468 18.2658 15.5915 18.306 15.6224 18.3336C15.6378 18.3473 15.6499 18.3579 15.6582 18.3653C15.6624 18.369 15.6656 18.3718 15.6679 18.3738C15.6691 18.3748 15.67 18.3756 15.6706 18.3762C15.671 18.3765 15.6712 18.3767 15.6715 18.3769C15.6716 18.377 15.6717 18.3771 15.6717 18.3771C15.6718 18.3772 15.6719 18.3773 16 18ZM12.5 11.913C12.5 10.0384 14.0566 8.5 16 8.5V7.5C13.5251 7.5 11.5 9.46548 11.5 11.913H12.5ZM16 8.5C17.9434 8.5 19.5 10.0384 19.5 11.913H20.5C20.5 9.46548 18.4749 7.5 16 7.5V8.5ZM23.5 20.6667C23.5 20.9527 23.363 21.2705 23.0204 21.608C22.6761 21.9471 22.1522 22.2756 21.4645 22.5622C20.0913 23.1343 18.1596 23.5 16 23.5V24.5C18.2587 24.5 20.3269 24.1195 21.8492 23.4852C22.6092 23.1686 23.2569 22.7788 23.7222 22.3203C24.1893 21.8602 24.5 21.3011 24.5 20.6667H23.5ZM16 23.5C13.8404 23.5 11.9087 23.1343 10.5355 22.5622C9.84776 22.2756 9.32388 21.9471 8.97957 21.608C8.63702 21.2705 8.5 20.9527 8.5 20.6667H7.5C7.5 21.3011 7.81069 21.8602 8.27779 22.3203C8.74312 22.7788 9.39082 23.1686 10.1508 23.4852C11.6731 24.1195 13.7413 24.5 16 24.5V23.5ZM8.5 20.6667C8.5 20.312 8.71424 19.9028 9.26296 19.4798C9.80666 19.0608 10.6167 18.6809 11.6366 18.3913L11.3634 17.4293C10.2705 17.7397 9.33057 18.1651 8.65247 18.6878C7.97937 19.2066 7.5 19.8756 7.5 20.6667H8.5ZM20.3634 18.3913C21.3833 18.6809 22.1933 19.0608 22.737 19.4798C23.2858 19.9028 23.5 20.312 23.5 20.6667H24.5C24.5 19.8756 24.0206 19.2066 23.3475 18.6878C22.6694 18.1651 21.7295 17.7397 20.6366 17.4293L20.3634 18.3913Z" fill="#2B7EFE"/>
</g>
<defs>
<filter id="filter0_d_1584_1815" x="3.5" y="7.5" width="25" height="25" filterUnits="userSpaceOnUse" color-interpolation-filters="sRGB">
<feFlood flood-opacity="0" result="BackgroundImageFix"/>
<feColorMatrix in="SourceAlpha" type="matrix" values="0 0 0 0 0 0 0 0 0 0 0 0 0 0 0 0 0 0 127 0" result="hardAlpha"/>
<feOffset dy="4"/>
<feGaussianBlur stdDeviation="2"/>
<feComposite in2="hardAlpha" operator="out"/>
<feColorMatrix type="matrix" values="0 0 0 0 0 0 0 0 0 0 0 0 0 0 0 0 0 0 0.25 0"/>
<feBlend mode="normal" in2="BackgroundImageFix" result="effect1_dropShadow_1584_1815"/>
<feBlend mode="normal" in="SourceGraphic" in2="effect1_dropShadow_1584_1815" result="shape"/>
</filter>
</defs>
</svg>
