<svg width="29" height="28" viewBox="0 0 29 28" fill="none" xmlns="http://www.w3.org/2000/svg">
<path fill-rule="evenodd" clip-rule="evenodd" d="M2.42496 13.9999C4.4582 18.5427 9.10122 21.7143 14.5 21.7143C19.8988 21.7143 24.5418 18.5428 26.575 14.0001C24.5418 9.45726 19.8988 6.28571 14.5 6.28571C9.10122 6.28571 4.45824 9.45718 2.42496 13.9999ZM28 14.0001C25.8925 8.73202 20.6427 5 14.5 5C8.35729 5 3.1075 8.73193 1 13.9999C3.10745 19.268 8.35729 23 14.5 23C20.6427 23 25.8925 19.2681 28 14.0001Z" fill="white"/>
<path fill-rule="evenodd" clip-rule="evenodd" d="M14.5 17.8571C16.6822 17.8571 18.4512 16.1302 18.4512 14C18.4512 11.8698 16.6822 10.1429 14.5 10.1429C12.3178 10.1429 10.5488 11.8698 10.5488 14C10.5488 16.1302 12.3178 17.8571 14.5 17.8571ZM14.5 19.1429C17.4096 19.1429 19.7682 16.8403 19.7682 14C19.7682 11.1597 17.4096 8.85714 14.5 8.85714C11.5904 8.85714 9.23177 11.1597 9.23177 14C9.23177 16.8403 11.5904 19.1429 14.5 19.1429Z" fill="white"/>
<path fill-rule="evenodd" clip-rule="evenodd" d="M2.42496 13.9999C4.4582 18.5427 9.10122 21.7143 14.5 21.7143C19.8988 21.7143 24.5418 18.5428 26.575 14.0001C24.5418 9.45726 19.8988 6.28571 14.5 6.28571C9.10122 6.28571 4.45824 9.45718 2.42496 13.9999ZM28 14.0001C25.8925 8.73202 20.6427 5 14.5 5C8.35729 5 3.1075 8.73193 1 13.9999C3.10745 19.268 8.35729 23 14.5 23C20.6427 23 25.8925 19.2681 28 14.0001Z" stroke="white" stroke-width="0.5"/>
<path fill-rule="evenodd" clip-rule="evenodd" d="M14.5 17.8571C16.6822 17.8571 18.4512 16.1302 18.4512 14C18.4512 11.8698 16.6822 10.1429 14.5 10.1429C12.3178 10.1429 10.5488 11.8698 10.5488 14C10.5488 16.1302 12.3178 17.8571 14.5 17.8571ZM14.5 19.1429C17.4096 19.1429 19.7682 16.8403 19.7682 14C19.7682 11.1597 17.4096 8.85714 14.5 8.85714C11.5904 8.85714 9.23177 11.1597 9.23177 14C9.23177 16.8403 11.5904 19.1429 14.5 19.1429Z" stroke="white" stroke-width="0.5"/>
</svg>
