<svg width="16" height="16" viewBox="0 0 16 16" fill="none" xmlns="http://www.w3.org/2000/svg">
<circle cx="8" cy="8" r="8" fill="#4CB24E"/>
<path fill-rule="evenodd" clip-rule="evenodd" d="M2.63331 7.99996C3.53698 10.019 5.60054 11.4286 8.00002 11.4286C10.3995 11.4286 12.463 10.019 13.3667 8.00004C12.463 5.981 10.3995 4.57143 7.99998 4.57143C5.60054 4.57143 3.53699 5.98097 2.63331 7.99996ZM14 8.00004C13.0634 5.65867 10.7301 4 7.99998 4C5.26991 4 2.93667 5.65863 2 7.99996C2.93664 10.3413 5.26991 12 8.00002 12C10.7301 12 13.0633 10.3414 14 8.00004Z" fill="white"/>
<path fill-rule="evenodd" clip-rule="evenodd" d="M8 9.71429C8.96986 9.71429 9.75608 8.94677 9.75608 8C9.75608 7.05323 8.96986 6.28571 8 6.28571C7.03015 6.28571 6.24392 7.05323 6.24392 8C6.24392 8.94677 7.03015 9.71429 8 9.71429ZM8 10.2857C9.29314 10.2857 10.3414 9.26237 10.3414 8C10.3414 6.73764 9.29314 5.71429 8 5.71429C6.70686 5.71429 5.65857 6.73764 5.65857 8C5.65857 9.26237 6.70686 10.2857 8 10.2857Z" fill="white"/>
<path fill-rule="evenodd" clip-rule="evenodd" d="M2.63331 7.99996C3.53698 10.019 5.60054 11.4286 8.00002 11.4286C10.3995 11.4286 12.463 10.019 13.3667 8.00004C12.463 5.981 10.3995 4.57143 7.99998 4.57143C5.60054 4.57143 3.53699 5.98097 2.63331 7.99996ZM14 8.00004C13.0634 5.65867 10.7301 4 7.99998 4C5.26991 4 2.93667 5.65863 2 7.99996C2.93664 10.3413 5.26991 12 8.00002 12C10.7301 12 13.0633 10.3414 14 8.00004Z" stroke="white" stroke-width="0.5"/>
<path fill-rule="evenodd" clip-rule="evenodd" d="M8 9.71429C8.96986 9.71429 9.75608 8.94677 9.75608 8C9.75608 7.05323 8.96986 6.28571 8 6.28571C7.03015 6.28571 6.24392 7.05323 6.24392 8C6.24392 8.94677 7.03015 9.71429 8 9.71429ZM8 10.2857C9.29314 10.2857 10.3414 9.26237 10.3414 8C10.3414 6.73764 9.29314 5.71429 8 5.71429C6.70686 5.71429 5.65857 6.73764 5.65857 8C5.65857 9.26237 6.70686 10.2857 8 10.2857Z" stroke="white" stroke-width="0.5"/>
</svg>
