<svg width="40" height="40" viewBox="0 0 40 40" fill="none" xmlns="http://www.w3.org/2000/svg">
<rect width="40" height="40" rx="10" fill="#313234"/>
<path fill-rule="evenodd" clip-rule="evenodd" d="M18.6947 15.5263C18.4997 16.4873 17.6501 17.2105 16.6316 17.2105C15.6131 17.2105 14.7635 16.4873 14.5684 15.5263H12.4211C12.1885 15.5263 12 15.3378 12 15.1053C12 14.8727 12.1885 14.6842 12.4211 14.6842H14.5684C14.7635 13.7233 15.6131 13 16.6316 13C17.6501 13 18.4997 13.7233 18.6947 14.6842H27.5789C27.8115 14.6842 28 14.8727 28 15.1053C28 15.3378 27.8115 15.5263 27.5789 15.5263H18.6947ZM17.8947 15.1053C17.8947 15.8029 17.3292 16.3684 16.6316 16.3684C15.934 16.3684 15.3684 15.8029 15.3684 15.1053C15.3684 14.4076 15.934 13.8421 16.6316 13.8421C17.3292 13.8421 17.8947 14.4076 17.8947 15.1053Z" fill="white"/>
<path fill-rule="evenodd" clip-rule="evenodd" d="M25.4316 20.5789C25.2365 21.5399 24.3869 22.2632 23.3684 22.2632C22.3499 22.2632 21.5003 21.5399 21.3053 20.5789H12.4211C12.1885 20.5789 12 20.3904 12 20.1579C12 19.9254 12.1885 19.7368 12.4211 19.7368H21.3053C21.5003 18.7759 22.3499 18.0526 23.3684 18.0526C24.3869 18.0526 25.2365 18.7759 25.4316 19.7368H27.5789C27.8115 19.7368 28 19.9254 28 20.1579C28 20.3904 27.8115 20.5789 27.5789 20.5789H25.4316ZM24.6316 20.1579C24.6316 20.8555 24.066 21.4211 23.3684 21.4211C22.6708 21.4211 22.1053 20.8555 22.1053 20.1579C22.1053 19.4603 22.6708 18.8947 23.3684 18.8947C24.066 18.8947 24.6316 19.4603 24.6316 20.1579Z" fill="white"/>
<path fill-rule="evenodd" clip-rule="evenodd" d="M16.6316 27.3158C17.6501 27.3158 18.4997 26.5925 18.6947 25.6316H27.5789C27.8115 25.6316 28 25.4431 28 25.2105C28 24.978 27.8115 24.7895 27.5789 24.7895H18.6947C18.4997 23.8285 17.6501 23.1053 16.6316 23.1053C15.6131 23.1053 14.7635 23.8285 14.5684 24.7895H12.4211C12.1885 24.7895 12 24.978 12 25.2105C12 25.4431 12.1885 25.6316 12.4211 25.6316H14.5684C14.7635 26.5925 15.6131 27.3158 16.6316 27.3158ZM16.6316 26.4737C17.3292 26.4737 17.8947 25.9081 17.8947 25.2105C17.8947 24.5129 17.3292 23.9474 16.6316 23.9474C15.934 23.9474 15.3684 24.5129 15.3684 25.2105C15.3684 25.9081 15.934 26.4737 16.6316 26.4737Z" fill="white"/>
</svg>
