<svg width="32" height="32" viewBox="0 0 32 32" fill="none" xmlns="http://www.w3.org/2000/svg">
<circle cx="16" cy="16" r="16" fill="#015905"/>
<path d="M15.7317 7.65409C15.8423 7.43303 16.1577 7.43303 16.2683 7.65409L18.3295 11.7749C18.5188 12.1532 18.8802 12.4158 19.2984 12.4789L23.8545 13.1658C24.0989 13.2026 24.1964 13.5027 24.0203 13.6761L20.7381 16.9099C20.4368 17.2068 20.2988 17.6316 20.3681 18.0489L21.1227 22.5943C21.1631 22.8381 20.9079 23.0235 20.6885 22.9097L16.5988 20.7874C16.2234 20.5926 15.7766 20.5926 15.4012 20.7874L11.3115 22.9097C11.0921 23.0235 10.8369 22.8381 10.8773 22.5943L11.6319 18.0489C11.7012 17.6316 11.5632 17.2068 11.2619 16.9099L7.97966 13.6761C7.80358 13.5027 7.90107 13.2026 8.14548 13.1658L12.7016 12.4789C13.1198 12.4158 13.4812 12.1532 13.6705 11.7749L15.7317 7.65409Z" stroke="#4CB24E"/>
</svg>
